<svg width="32" height="32" viewBox="0 0 32 32" fill="none" xmlns="http://www.w3.org/2000/svg">
<path d="M20.452 16.852C20.5613 16.7379 20.6469 16.6033 20.704 16.456C20.824 16.1638 20.824 15.8362 20.704 15.544C20.6469 15.3967 20.5613 15.2621 20.452 15.148L16.852 11.548C16.626 11.322 16.3196 11.1951 16 11.1951C15.6804 11.1951 15.374 11.322 15.148 11.548C14.922 11.774 14.7951 12.0804 14.7951 12.4C14.7951 12.7196 14.922 13.026 15.148 13.252L16.708 14.8H12.4C12.0817 14.8 11.7765 14.9264 11.5515 15.1515C11.3264 15.3765 11.2 15.6817 11.2 16C11.2 16.3183 11.3264 16.6235 11.5515 16.8485C11.7765 17.0736 12.0817 17.2 12.4 17.2H16.708L15.148 18.748C15.0355 18.8596 14.9463 18.9923 14.8853 19.1385C14.8244 19.2847 14.793 19.4416 14.793 19.6C14.793 19.7584 14.8244 19.9153 14.8853 20.0615C14.9463 20.2077 15.0355 20.3404 15.148 20.452C15.2596 20.5645 15.3923 20.6537 15.5385 20.7147C15.6847 20.7756 15.8416 20.807 16 20.807C16.1584 20.807 16.3153 20.7756 16.4615 20.7147C16.6077 20.6537 16.7404 20.5645 16.852 20.452L20.452 16.852ZM28 16C28 13.6266 27.2962 11.3066 25.9776 9.33316C24.6591 7.35977 22.7849 5.8217 20.5922 4.91345C18.3995 4.0052 15.9867 3.76756 13.6589 4.23058C11.3311 4.6936 9.19295 5.83649 7.51472 7.51472C5.83649 9.19295 4.6936 11.3311 4.23058 13.6589C3.76756 15.9867 4.0052 18.3995 4.91345 20.5922C5.8217 22.7849 7.35977 24.6591 9.33316 25.9776C11.3066 27.2962 13.6266 28 16 28C19.1826 28 22.2348 26.7357 24.4853 24.4853C26.7357 22.2348 28 19.1826 28 16ZM6.40001 16C6.40001 14.1013 6.96304 12.2452 8.0179 10.6665C9.07276 9.08782 10.5721 7.85736 12.3262 7.13076C14.0804 6.40416 16.0107 6.21405 17.8729 6.58447C19.7351 6.95488 21.4456 7.8692 22.7882 9.21178C24.1308 10.5544 25.0451 12.2649 25.4155 14.1271C25.786 15.9894 25.5958 17.9196 24.8692 19.6738C24.1426 21.4279 22.9122 22.9272 21.3335 23.9821C19.7548 25.037 17.8987 25.6 16 25.6C13.4539 25.6 11.0121 24.5886 9.21178 22.7882C7.41143 20.9879 6.40001 18.5461 6.40001 16Z" fill="#4B4C55"/>
</svg>
