<svg width="32" height="32" viewBox="0 0 32 32" fill="none" xmlns="http://www.w3.org/2000/svg">
<path d="M11.548 15.148C11.4387 15.2621 11.3531 15.3967 11.296 15.544C11.176 15.8362 11.176 16.1638 11.296 16.456C11.3531 16.6033 11.4387 16.7379 11.548 16.852L15.148 20.452C15.374 20.678 15.6804 20.8049 16 20.8049C16.3196 20.8049 16.626 20.678 16.852 20.452C17.078 20.226 17.2049 19.9196 17.2049 19.6C17.2049 19.2804 17.078 18.974 16.852 18.748L15.292 17.2H19.6C19.9183 17.2 20.2235 17.0736 20.4485 16.8485C20.6736 16.6235 20.8 16.3183 20.8 16C20.8 15.6817 20.6736 15.3765 20.4485 15.1515C20.2235 14.9264 19.9183 14.8 19.6 14.8H15.292L16.852 13.252C16.9645 13.1404 17.0537 13.0077 17.1147 12.8615C17.1756 12.7153 17.207 12.5584 17.207 12.4C17.207 12.2416 17.1756 12.0847 17.1147 11.9385C17.0537 11.7923 16.9645 11.6596 16.852 11.548C16.7404 11.4355 16.6077 11.3463 16.4615 11.2853C16.3153 11.2244 16.1584 11.193 16 11.193C15.8416 11.193 15.6847 11.2244 15.5385 11.2853C15.3923 11.3463 15.2596 11.4355 15.148 11.548L11.548 15.148ZM4 16C4 18.3734 4.70379 20.6934 6.02236 22.6668C7.34094 24.6402 9.21508 26.1783 11.4078 27.0865C13.6005 27.9948 16.0133 28.2324 18.3411 27.7694C20.6689 27.3064 22.807 26.1635 24.4853 24.4853C26.1635 22.807 27.3064 20.6689 27.7694 18.3411C28.2324 16.0133 27.9948 13.6005 27.0865 11.4078C26.1783 9.21508 24.6402 7.34094 22.6668 6.02236C20.6934 4.70379 18.3734 4 16 4C14.4241 4 12.8637 4.31039 11.4078 4.91345C9.95189 5.5165 8.62902 6.40041 7.51472 7.51472C5.26428 9.76515 4 12.8174 4 16ZM25.6 16C25.6 17.8987 25.037 19.7548 23.9821 21.3335C22.9272 22.9122 21.4279 24.1426 19.6738 24.8692C17.9196 25.5958 15.9893 25.786 14.1271 25.4155C12.2649 25.0451 10.5544 24.1308 9.21177 22.7882C7.86919 21.4456 6.95488 19.7351 6.58446 17.8729C6.21404 16.0106 6.40415 14.0804 7.13076 12.3262C7.85736 10.5721 9.08781 9.07275 10.6665 8.01789C12.2452 6.96303 14.1013 6.4 16 6.4C18.5461 6.4 20.9879 7.41142 22.7882 9.21177C24.5886 11.0121 25.6 13.4539 25.6 16Z" fill="#9EA8AB"/>
</svg>
